<?xml version="1.0" encoding="UTF-8"?>
<svg version="1.1" xmlns="http://www.w3.org/2000/svg" width="1320" height="1000">
<path d="M0 0 C435.6 0 871.2 0 1320 0 C1320 330 1320 660 1320 1000 C884.4 1000 448.8 1000 0 1000 C0 670 0 340 0 0 Z " fill="#8A0013" transform="translate(0,0)"/>
<path d="M0 0 C4.28103439 1.32489973 7.07445608 3.77493045 9.35571289 7.68457031 C10.61891247 12.24862849 10.23082255 16.58302825 9.9921875 21.28515625 C9.94154648 22.43401306 9.89090546 23.58286987 9.83872986 24.76654053 C9.63908295 29.07074758 9.41492135 33.37318089 9.18359375 37.67578125 C9.136334 38.55900055 9.08907425 39.44221985 9.04038239 40.35220337 C8.29279656 54.2552195 7.48481725 68.15443789 6.65454102 82.05273438 C6.30978942 87.82961404 5.97525969 93.60704033 5.64295292 99.38464737 C5.38316657 103.87168257 5.11631866 108.35827757 4.84750175 112.84477997 C4.72093368 114.97681281 4.59694867 117.10900071 4.47566414 119.24134064 C4.30641317 122.2046871 4.12720809 125.16727417 3.94555664 128.12988281 C3.87454239 129.43111588 3.87454239 129.43111588 3.80209351 130.75863647 C3.29070631 138.77684953 2.08434181 144.91225989 -3.81640625 150.67578125 C-6.484375 151.33984375 -6.484375 151.33984375 -8.81640625 151.67578125 C-8.81364087 152.38146555 -8.81087549 153.08714985 -8.80802631 153.81421852 C-8.74175271 170.99072507 -8.69211898 188.16719911 -8.66096973 205.34380531 C-8.64550553 213.65031147 -8.62442458 221.95673224 -8.59008789 230.26318359 C-8.56017182 237.50369047 -8.54082799 244.7441355 -8.53414077 251.98470247 C-8.53023223 255.81800071 -8.52105605 259.65112205 -8.49921608 263.48436356 C-8.47881596 267.09422009 -8.47257951 270.70382725 -8.47708321 274.31373596 C-8.4758676 276.26638981 -8.4597439 278.21901666 -8.44314575 280.17160034 C-8.46886787 287.46537443 -8.8980695 292.30145438 -13.81640625 297.98828125 C-16.81358744 300.51715288 -19.35206897 300.80215652 -23.13256836 300.82104492 C-24.00034409 300.82742477 -24.86811981 300.83380463 -25.76219177 300.84037781 C-27.1638131 300.84204704 -27.1638131 300.84204704 -28.59375 300.84375 C-30.03809166 300.8487426 -30.03809166 300.8487426 -31.51161194 300.85383606 C-33.54834516 300.85889925 -35.58508667 300.86124457 -37.62182617 300.86108398 C-40.7382574 300.86327027 -43.85433455 300.88143192 -46.97070312 300.90039062 C-48.94921754 300.90332469 -50.92773363 300.9053094 -52.90625 300.90625 C-53.83863998 300.91343552 -54.77102997 300.92062103 -55.73167419 300.92802429 C-56.60260208 300.92494766 -57.47352997 300.92187103 -58.37084961 300.91870117 C-59.13457382 300.92012619 -59.89829803 300.92155121 -60.68516541 300.92301941 C-63.09344567 300.64364283 -64.72445269 299.87207034 -66.81640625 298.67578125 C-67.19335833 293.96388023 -67.27955328 290.60207532 -65.12890625 286.30078125 C-60.48229583 281.0262505 -55.3228073 279.85607424 -48.69140625 278.48828125 C-47.88058594 278.31103516 -47.06976562 278.13378906 -46.234375 277.95117188 C-43.00479422 277.25988144 -40.13157919 276.67578125 -36.81640625 276.67578125 C-36.80685355 260.44668408 -36.83142761 244.21805393 -36.89668465 227.98910141 C-36.92618784 220.45376084 -36.94450224 212.91870257 -36.93652344 205.38330078 C-36.9295978 198.81577064 -36.94361771 192.2486773 -36.98284233 185.68125463 C-37.00288158 182.20335103 -37.01239552 178.72613348 -36.99682999 175.24819183 C-36.97985 171.36655109 -37.00963144 167.48603943 -37.04345703 163.60449219 C-37.02512566 161.87280037 -37.02512566 161.87280037 -37.00642395 160.10612488 C-36.87401681 154.71095191 -36.87401681 154.71095191 -39.16839218 150.08991241 C-40.95676859 148.8184288 -40.95676859 148.8184288 -43.81640625 147.67578125 C-44.14640625 147.34578125 -44.47640625 147.01578125 -44.81640625 146.67578125 C-44.83622559 147.99296143 -44.85604492 149.3101416 -44.87646484 150.66723633 C-44.95246466 155.54829213 -45.04119073 160.42904763 -45.13378906 165.30981445 C-45.17210206 167.42336097 -45.20695082 169.53697321 -45.23828125 171.65063477 C-45.28388129 174.68659985 -45.34188408 177.72211153 -45.40234375 180.7578125 C-45.41389496 181.70477493 -45.42544617 182.65173737 -45.43734741 183.62739563 C-45.4572171 184.50808212 -45.47708679 185.38876862 -45.49755859 186.29614258 C-45.51088226 187.07113602 -45.52420593 187.84612946 -45.53793335 188.64460754 C-45.81640625 190.67578125 -45.81640625 190.67578125 -47.81640625 193.67578125 C-48.47640625 193.67578125 -49.13640625 193.67578125 -49.81640625 193.67578125 C-49.81640625 194.33578125 -49.81640625 194.99578125 -49.81640625 195.67578125 C-60.43875342 195.74526568 -71.0610466 195.79858463 -81.68357468 195.83121777 C-86.61595431 195.84687937 -91.54817855 195.86812673 -96.48046875 195.90209961 C-101.2396523 195.93467533 -105.99868629 195.95263054 -110.75797272 195.96041298 C-112.57447921 195.9659597 -114.39097745 195.976791 -116.20742035 195.99297142 C-118.75011437 196.01472205 -121.29218898 196.01774919 -123.83496094 196.01635742 C-124.58734039 196.02714325 -125.33971985 196.03792908 -126.11489868 196.04904175 C-129.16551061 196.03095197 -131.50639098 195.82118223 -134.28488159 194.51803589 C-136.4392703 191.92654475 -136.31130619 190.20718678 -136.30224609 186.85913086 C-136.30839935 185.66456772 -136.31455261 184.47000458 -136.32089233 183.23924255 C-136.3065213 181.94857376 -136.29215027 180.65790497 -136.27734375 179.328125 C-136.27495922 177.99199094 -136.27405402 176.65585349 -136.27456665 175.31971741 C-136.27143954 172.52111792 -136.25488074 169.72303108 -136.22802734 166.92456055 C-136.19401415 163.33413138 -136.18639969 159.74426461 -136.18791771 156.1536932 C-136.1873744 153.39562086 -136.17641426 150.63767192 -136.16191483 147.87964058 C-136.15244131 145.91090014 -136.14898901 143.94213373 -136.14559937 141.97337341 C-136.13283966 140.78196243 -136.12007996 139.59055145 -136.10693359 138.36303711 C-136.09931 137.31063339 -136.0916864 136.25822968 -136.08383179 135.17393494 C-135.81640625 132.67578125 -135.81640625 132.67578125 -133.81640625 130.67578125 C-131.07312605 129.76697109 -128.5838102 129.55633122 -125.70703125 129.578125 C-124.95292969 129.58134766 -124.19882812 129.58457031 -123.421875 129.58789062 C-122.64457031 129.59626953 -121.86726562 129.60464844 -121.06640625 129.61328125 C-120.27363281 129.61779297 -119.48085938 129.62230469 -118.6640625 129.62695312 C-116.71481117 129.6386956 -114.76559887 129.65662979 -112.81640625 129.67578125 C-112.52378906 128.90621094 -112.23117187 128.13664063 -111.9296875 127.34375 C-110.17616195 123.1414414 -108.22122126 120.34626114 -104.06640625 118.36328125 C-103.32390625 118.13640625 -102.58140625 117.90953125 -101.81640625 117.67578125 C-101.92339844 117.09570312 -102.03039062 116.515625 -102.140625 115.91796875 C-102.26050781 115.13679688 -102.38039063 114.355625 -102.50390625 113.55078125 C-102.63152344 112.78507812 -102.75914062 112.019375 -102.890625 111.23046875 C-102.72995949 105.70019283 -99.34503871 101.8448933 -95.69140625 97.98828125 C-92.45440658 94.4950409 -89.36378247 90.94949502 -86.37890625 87.23828125 C-82.5169895 82.46293723 -78.43966401 77.9391044 -74.28125 73.421875 C-71.88933328 70.75702959 -69.62385741 68.027463 -67.37890625 65.23828125 C-63.25183849 60.12159688 -58.87683615 55.30340569 -54.39453125 50.5 C-53.54375 49.56800781 -52.69296875 48.63601563 -51.81640625 47.67578125 C-50.88699219 46.7528125 -49.95757813 45.82984375 -49 44.87890625 C-45.76800719 40.13787923 -46.38454311 35.95796699 -46.80664062 30.39648438 C-46.83873441 27.86535463 -46.69718263 26.05680796 -45.81640625 23.67578125 C-42.86521859 20.68715373 -39.45591309 18.73399973 -35.81640625 16.67578125 C-34.86548096 16.11592529 -33.91455566 15.55606934 -32.93481445 14.97924805 C-29.99867303 13.27696959 -27.03893656 11.62608716 -24.06640625 9.98828125 C-22.070405 8.88238867 -20.07557714 7.77437514 -18.08203125 6.6640625 C-16.69951172 5.89557983 -16.69951172 5.89557983 -15.2890625 5.11157227 C-13.23538846 3.91907058 -11.31994148 2.66919718 -9.39453125 1.28515625 C-5.87812793 -0.90993188 -3.94911105 -0.6592951 0 0 Z " fill="#F0F7F8" transform="translate(772.81640625,255.32421875)"/>
<path d="M0 0 C2.86157227 1.25 2.86157227 1.25 5.81640625 3 C6.9051001 3.63663574 7.99379395 4.27327148 9.11547852 4.92919922 C10.26473065 5.6190582 11.41373397 6.30933184 12.5625 7 C13.73500139 7.69257614 14.90809878 8.38414427 16.08178711 9.07470703 C19.39864584 11.03196696 22.70078949 13.01311877 26 15 C26.81339844 15.48823242 27.62679687 15.97646484 28.46484375 16.47949219 C38.55076754 22.55076754 38.55076754 22.55076754 40 24 C39.96186778 25.95957236 39.92335874 27.91913821 39.8828125 29.87866211 C39.86155066 36.50239064 40.00080438 41.87941927 44.54541016 46.99682617 C46.50212809 48.93482425 48.50634768 50.80765015 50.55859375 52.64404297 C52.78369245 54.73723371 54.61612579 57.10079064 56.5 59.5 C59.69931506 63.47629157 63.0258285 67.26670522 66.5 71 C70.76496064 75.58306543 74.75249224 80.3219013 78.671875 85.20703125 C80.80576325 87.76698108 83.01246216 90.20536642 85.29199219 92.63354492 C96.65361255 104.74284057 96.65361255 104.74284057 97.2421875 110.27734375 C96.95683261 115.99395343 95.04232425 119.05626902 91 123 C88.72885524 124.13557238 87.27706381 124.23084318 84.75 124.3125 C83.62851562 124.36857422 83.62851562 124.36857422 82.484375 124.42578125 C76.51875531 123.40337159 72.56697221 118.75377204 68.6875 114.4375 C68.2138501 113.9122876 67.7402002 113.3870752 67.25219727 112.84594727 C63.44951339 108.59416266 59.84759966 104.191216 56.2734375 99.74609375 C53.00964609 95.80374777 49.5487019 92.06182614 46.06640625 88.3125 C44 86 44 86 42 83 C41.99635437 83.7383609 41.99270874 84.4767218 41.98895264 85.23745728 C41.95101461 92.21128342 41.89409604 99.18472714 41.81609726 106.15821266 C41.77666399 109.74302571 41.74445562 113.32759467 41.72900391 116.91259766 C41.71380926 120.3753274 41.67931592 123.83738592 41.63169098 127.29981613 C41.60973247 129.25719741 41.60752867 131.21476819 41.60565186 133.17227173 C41.42413024 144.22627066 41.42413024 144.22627066 37 149 C33.6 152 33.6 152 31 152 C31 193.25 31 234.5 31 277 C37.6 278.32 44.2 279.64 51 281 C58.63636364 284.81818182 58.63636364 284.81818182 61 289 C61.48068632 292.06775087 61.63359557 294.95189156 61 298 C59.42894681 300.00368246 58.53911128 300.89683793 56.00920105 301.38095093 C55.25230484 301.38333771 54.49540863 301.38572449 53.71557617 301.38818359 C52.85425583 301.39764008 51.99293549 301.40709656 51.10551453 301.4168396 C49.71330437 301.40773056 49.71330437 301.40773056 48.29296875 301.3984375 C47.33481766 301.40130768 46.37666656 301.40417786 45.38948059 301.40713501 C43.36112884 301.40917717 41.33275747 301.40363671 39.30444336 301.39111328 C36.20967098 301.37511461 33.1162151 301.39092973 30.02148438 301.41015625 C28.0494763 301.40817281 26.07746903 301.40432706 24.10546875 301.3984375 C23.18340134 301.40451019 22.26133392 301.41058289 21.31132507 301.4168396 C16.12504249 301.36051749 12.47853229 300.90736935 8 298 C3.88187931 293.54797763 2.87432284 290.37055224 2.87974548 284.40022278 C2.87837082 283.23494553 2.87699615 282.06966827 2.87557983 280.86907959 C2.87917511 279.5894635 2.88277039 278.30984741 2.88647461 276.99145508 C2.88675666 275.63142397 2.8865984 274.27139271 2.8860321 272.91136169 C2.88574482 269.21742897 2.8916304 265.52352862 2.89860606 261.82960343 C2.90485109 257.96987461 2.90544431 254.11014508 2.90663147 250.25041199 C2.90974139 242.94064908 2.91795022 235.63090109 2.92798096 228.32114476 C2.93915261 219.99959108 2.9446552 211.67803669 2.94967639 203.35647738 C2.9601331 186.23764295 2.977726 169.11882305 3 152 C2.21141602 151.8656958 1.42283203 151.7313916 0.61035156 151.59301758 C-2.44547624 150.89879706 -3.30151796 150.08208187 -5.25 147.6875 C-5.75015625 147.09324219 -6.2503125 146.49898437 -6.765625 145.88671875 C-8.95692611 142.53735661 -9.15232602 139.04114355 -9.38600159 135.11326599 C-9.44627533 134.13079391 -9.50654907 133.14832184 -9.56864929 132.13607788 C-9.63050919 131.06435333 -9.69236908 129.99262878 -9.75610352 128.88842773 C-9.82452454 127.75459152 -9.89294556 126.62075531 -9.96343994 125.45256042 C-10.18905938 121.69645415 -10.40913004 117.94004612 -10.62890625 114.18359375 C-10.78418045 111.57005928 -10.93969632 108.95653915 -11.09544373 106.34303284 C-11.42171099 100.85799563 -11.74484918 95.37278068 -12.06616211 89.88745117 C-12.43628068 83.56962007 -12.81140018 77.25210115 -13.18923432 70.93472713 C-13.55371743 64.83845172 -13.91448348 58.74196242 -14.27366447 52.64537239 C-14.42623576 50.06148883 -14.57973413 47.47765984 -14.7341938 44.89388847 C-14.9504025 41.26854892 -15.16238711 37.64298552 -15.37329102 34.01733398 C-15.43717514 32.95977905 -15.50105927 31.90222412 -15.56687927 30.81262207 C-16.74325761 10.29219179 -16.74325761 10.29219179 -13 5 C-8.58031355 1.01150248 -5.98790655 -0.4622402 0 0 Z " fill="#F0F8F8" transform="translate(553,255)"/>
<path d="M0 0 C25 0 25 0 31.671875 6.36328125 C33.22566223 8.59338379 33.22566223 8.59338379 34.25708008 10.61523438 C34.66213776 11.37795654 35.06719543 12.14067871 35.48452759 12.92651367 C35.90213348 13.71388916 36.31973938 14.50126465 36.75 15.3125 C37.70296958 16.93504975 38.66641071 18.5514877 39.6394043 20.16210938 C41.71333992 23.60683229 43.7453498 27.07199348 45.75732422 30.55322266 C50.74992847 39.0706718 56.38963087 47.16237085 61.96765137 55.30258179 C64.88113691 59.5624917 67.76051332 63.84508266 70.64453125 68.125 C79.41556283 81.09289799 88.20936625 94.04538185 97 107 C97.33 71.69 97.66 36.38 98 0 C104.6 0 111.2 0 118 0 C118 45.21 118 90.42 118 137 C93 137 93 137 85.671875 129.76171875 C83.89826965 127.23852539 83.89826965 127.23852539 82.67504883 124.9609375 C82.19887115 124.10338867 81.72269348 123.24583984 81.23208618 122.36230469 C80.74299774 121.47961914 80.2539093 120.59693359 79.75 119.6875 C78.65635539 117.87826027 77.55284436 116.07495252 76.44018555 114.27734375 C74.10635261 110.49151297 71.8161898 106.6837718 69.55029297 102.85693359 C64.28851007 94.06473491 58.45688912 85.65622933 52.66540527 77.2081604 C41.96610169 61.5703236 31.50971879 45.76457819 21 30 C20.67 65.31 20.34 100.62 20 137 C13.4 137 6.8 137 0 137 C0 91.79 0 46.58 0 0 Z " fill="#F1FAFA" transform="translate(849,606)"/>
<path d="M0 0 C1.09940918 0.01160156 2.19881836 0.02320313 3.33154297 0.03515625 C22.80761928 0.42646167 37.97452014 6.4361593 51.6875 20.375 C47.57130164 25.29435902 43.28339638 29.90147956 38.6875 34.375 C37.2334375 33.075625 37.2334375 33.075625 35.75 31.75 C23.66816485 21.40462294 12.47527353 16.80700964 -3.4609375 17.0625 C-16.45047505 18.11641785 -26.62175596 23.8638716 -35.46484375 33.19921875 C-46.18664494 45.82510302 -48.87554213 61.80545226 -47.63476562 77.93554688 C-46.30499468 88.00150999 -41.5185767 97.45234889 -35.3125 105.375 C-34.70921875 106.2721875 -34.70921875 106.2721875 -34.09375 107.1875 C-28.93428483 114.23457438 -19.19681785 119.65700972 -10.8125 121.875 C3.19326927 124.03173256 17.66642864 122.28082526 29.484375 114.13671875 C41.1069765 105.0083481 45.47431665 92.29879453 48.6875 78.375 C37.4675 78.375 26.2475 78.375 14.6875 78.375 C14.6875 72.765 14.6875 67.155 14.6875 61.375 C33.1675 61.375 51.6475 61.375 70.6875 61.375 C70.6875 86.785 70.6875 112.195 70.6875 138.375 C63.7575 138.375 56.8275 138.375 49.6875 138.375 C49.3575 133.095 49.0275 127.815 48.6875 122.375 C47.8625 123.2 47.0375 124.025 46.1875 124.875 C37.87294193 132.00418319 26.3058468 137.00010173 15.6875 139.375 C14.96691406 139.55546875 14.24632812 139.7359375 13.50390625 139.921875 C-4.91623252 142.88544795 -23.64819176 139.26029341 -38.99609375 128.4921875 C-41.51936032 126.53348742 -43.92648919 124.49814521 -46.3125 122.375 C-47.01117187 121.77042969 -47.70984375 121.16585937 -48.4296875 120.54296875 C-60.81979687 109.09296496 -68.68927865 91.25084015 -69.4453125 74.41796875 C-69.43705998 71.40167319 -69.39409763 68.39022678 -69.3125 65.375 C-69.29574219 64.5603125 -69.27898438 63.745625 -69.26171875 62.90625 C-68.19379135 44.59892319 -58.25361148 28.73900786 -45.3125 16.375 C-32.13646992 5.15304218 -17.236474 -0.23382299 0 0 Z " fill="#EFF7F7" transform="translate(627.3125,604.625)"/>
<path d="M0 0 C202.62 0 405.24 0 614 0 C614 3.96 614 7.92 614 12 C411.38 12 208.76 12 0 12 C0 8.04 0 4.08 0 0 Z " fill="#F2FCFC" transform="translate(353,838)"/>
<path d="M0 0 C30.03 0 60.06 0 91 0 C91 5.61 91 11.22 91 17 C67.57 17 44.14 17 20 17 C20 30.2 20 43.4 20 57 C39.14 57 58.28 57 78 57 C78 62.61 78 68.22 78 74 C58.86 74 39.72 74 20 74 C20 89.18 20 104.36 20 120 C44.42 120 68.84 120 94 120 C94 125.61 94 131.22 94 137 C62.98 137 31.96 137 0 137 C0 91.79 0 46.58 0 0 Z " fill="#F0F9F9" transform="translate(727,606)"/>
<path d="M0 0 C30.03 0 60.06 0 91 0 C91 5.61 91 11.22 91 17 C67.57 17 44.14 17 20 17 C20 31.19 20 45.38 20 60 C39.14 60 58.28 60 78 60 C78 65.28 78 70.56 78 76 C58.86 76 39.72 76 20 76 C20 96.13 20 116.26 20 137 C13.4 137 6.8 137 0 137 C0 91.79 0 46.58 0 0 Z " fill="#F1FBFB" transform="translate(353,606)"/>
<path d="M0 0 C6.2026231 4.9133138 10.11694664 10.79828567 11.21484375 18.70703125 C11.54092496 27.64796766 9.4610345 34.29234242 4.7109375 41.77734375 C-0.72396773 47.50691252 -7.30448414 50.75288302 -15.20581055 51.19262695 C-22.66724617 51.27219928 -29.3356317 50.42943974 -35.2265625 45.52734375 C-42.64740886 37.27917331 -45.82090759 29.93661216 -45.59375 18.84375 C-44.64443437 10.26961198 -40.08985429 4.49514348 -33.54296875 -0.84375 C-23.01704232 -8.24562406 -10.47178771 -6.92607713 0 0 Z " fill="#F0F8F8" transform="translate(767.2265625,199.47265625)"/>
<path d="M0 0 C6.40869686 4.5994389 10.40099577 9.52253701 13 17 C13.91603839 25.22304232 13.15878149 31.84573254 9 39 C8.46375 40.051875 7.9275 41.10375 7.375 42.1875 C3.50842104 46.76634351 -1.68867778 49.34433889 -7 52 C-16.56187072 52.60784508 -24.30234391 52.52712044 -32.625 47.375 C-39.27008476 40.72991524 -43.23876461 33.24253759 -43.4375 23.75 C-43.27718241 15.92115755 -41.17238257 10.53425131 -35.9453125 4.7109375 C-25.53828305 -5.1919452 -12.77831987 -7.23540629 0 0 Z " fill="#F0F8F9" transform="translate(585,198)"/>
<path d="M0 0 C21.78 0 43.56 0 66 0 C66 5.28 66 10.56 66 16 C44.22 16 22.44 16 0 16 C0 10.72 0 5.44 0 0 Z " fill="#EDF0F1" transform="translate(469,688)"/>
<path d="M0 0 C0.33 0 0.66 0 1 0 C1 16.83 1 33.66 1 51 C-0.98 50.34 -2.96 49.68 -5 49 C-6.97030692 48.93246932 -8.94163941 48.86746689 -10.91308594 48.87573242 C-19.8525877 48.87259502 -19.8525877 48.87259502 -23.234375 46.30078125 C-24.75 44.1875 -24.75 44.1875 -25.859375 42.10546875 C-27.21373759 39.60546384 -28.93304258 37.93234465 -31 36 C-19.62727117 22.64522199 -19.62727117 22.64522199 -14.25 16.75 C-10.52282413 12.64942764 -7.04522644 8.39309719 -3.62890625 4.03125 C-2 2 -2 2 0 0 Z " fill="#8A0114" transform="translate(725,337)"/>
<path d="M0 0 C2.97 0 5.94 0 9 0 C9 2.97 9 5.94 9 9 C11.97 9 14.94 9 18 9 C18 11.97 18 14.94 18 18 C15.03 18 12.06 18 9 18 C9 20.64 9 23.28 9 26 C6.03 26 3.06 26 0 26 C0 23.03 0 20.06 0 17 C-2.64 17 -5.28 17 -8 17 C-8 14.36 -8 11.72 -8 9 C-5.36 9 -2.72 9 0 9 C0 6.03 0 3.06 0 0 Z " fill="#8C0719" transform="translate(677,405)"/>
<path d="M0 0 C2.00102779 -0.05321882 4.00140968 -0.13783422 6 -0.25 C11.42357992 -0.31679286 11.42357992 -0.31679286 13.890625 1.0390625 C15.25 2.375 15.25 2.375 17 5 C17 5.66 17 6.32 17 7 C7.43 7 -2.14 7 -12 7 C-8.94053931 0.88107861 -6.66891119 -1.45311052 0 0 Z " fill="#8B0215" transform="translate(679,378)"/>
<path d="M0 0 C6.75 -0.125 6.75 -0.125 9 1 C9.44921875 3.46875 9.44921875 3.46875 9.6875 6.5 C9.77386719 7.5003125 9.86023438 8.500625 9.94921875 9.53125 C9.96597656 10.3459375 9.98273437 11.160625 10 12 C9 13 9 13 6.93359375 13.09765625 C3.46679688 13.04882812 3.46679688 13.04882812 0 13 C0 8.71 0 4.42 0 0 Z " fill="#D1AEB4" transform="translate(544,794)"/>
<path d="M0 0 C1.258125 -0.04125 2.51625 -0.0825 3.8125 -0.125 C4.52019531 -0.14820313 5.22789062 -0.17140625 5.95703125 -0.1953125 C8 0 8 0 11 2 C11.29296875 4.8203125 11.29296875 4.8203125 11.1875 8.125 C11.16042969 9.22070312 11.13335938 10.31640625 11.10546875 11.4453125 C11.07066406 12.28835938 11.03585937 13.13140625 11 14 C10.34 14 9.68 14 9 14 C8.67 12.35 8.34 10.7 8 9 C5.03 8.505 5.03 8.505 2 8 C2 9.65 2 11.3 2 13 C1.34 13 0.68 13 0 13 C0 8.71 0 4.42 0 0 Z " fill="#E7E1E4" transform="translate(742,794)"/>
<path d="M0 0 C0.99 0 1.98 0 3 0 C3 1.65 3 3.3 3 5 C5.31 5 7.62 5 10 5 C10 3.35 10 1.7 10 0 C10.66 0 11.32 0 12 0 C12 4.62 12 9.24 12 14 C11.01 14 10.02 14 9 14 C9 12.02 9 10.04 9 8 C7.02 8 5.04 8 3 8 C3 9.98 3 11.96 3 14 C2.01 14 1.02 14 0 14 C0 9.38 0 4.76 0 0 Z " fill="#AF5A66" transform="translate(614,794)"/>
<path d="M0 0 C0.99 0 1.98 0 3 0 C3.67260351 1.76858691 4.33788395 3.53996016 5 5.3125 C5.37125 6.29863281 5.7425 7.28476562 6.125 8.30078125 C7 11 7 11 7 14 C6.34 14 5.68 14 5 14 C4.67 13.01 4.34 12.02 4 11 C1.03 10.505 1.03 10.505 -2 10 C-2.33 11.32 -2.66 12.64 -3 14 C-3.66 14 -4.32 14 -5 14 C-4.54636829 12.41531323 -4.08688548 10.83230076 -3.625 9.25 C-3.36976563 8.36828125 -3.11453125 7.4865625 -2.8515625 6.578125 C-2.0790066 4.23919428 -1.16374324 2.16557438 0 0 Z " fill="#C1858E" transform="translate(844,794)"/>
<path d="M0 0 C4 1 4 1 6.25 4.0625 C7.11625 5.5165625 7.11625 5.5165625 8 7 C8.33 4.69 8.66 2.38 9 0 C9.66 0 10.32 0 11 0 C11 4.62 11 9.24 11 14 C10.34 14 9.68 14 9 14 C7.4921875 11.8125 7.4921875 11.8125 5.875 9 C5.33617187 8.071875 4.79734375 7.14375 4.2421875 6.1875 C3.83226562 5.465625 3.42234375 4.74375 3 4 C2.67 7.3 2.34 10.6 2 14 C1.34 13.67 0.68 13.34 0 13 C0 8.71 0 4.42 0 0 Z " fill="#DCC6CA" transform="translate(791,794)"/>
<path d="M0 0 C1.88671875 0.2265625 1.88671875 0.2265625 4 1 C5.08203125 2.9609375 5.08203125 2.9609375 5.8125 5.375 C6.06644531 6.16648437 6.32039062 6.95796875 6.58203125 7.7734375 C7 10 7 10 6 13 C5.67 12.01 5.34 11.02 5 10 C3.02 10 1.04 10 -1 10 C-1.33 10.99 -1.66 11.98 -2 13 C-2.66 13 -3.32 13 -4 13 C-3.52140759 11.39566191 -3.04210442 9.79153584 -2.5625 8.1875 C-2.29566406 7.29417969 -2.02882813 6.40085937 -1.75390625 5.48046875 C-1.19612127 3.64526945 -0.60655425 1.81966274 0 0 Z " fill="#D3B1B6" transform="translate(729,794)"/>
<path d="M0 0 C1.134375 0.020625 2.26875 0.04125 3.4375 0.0625 C4.0975 1.3825 4.7575 2.7025 5.4375 4.0625 C4.674375 3.7325 3.91125 3.4025 3.125 3.0625 C0.44680865 1.88813314 0.44680865 1.88813314 -2.5625 2.0625 C-2.5625 2.7225 -2.5625 3.3825 -2.5625 4.0625 C-1.428125 4.454375 -0.29375 4.84625 0.875 5.25 C4.4375 7.0625 4.4375 7.0625 5.375 9.75 C5.395625 10.513125 5.41625 11.27625 5.4375 12.0625 C1.98504176 14.36413882 0.49011287 14.40740322 -3.5625 14.0625 C-4.2225 13.4025 -4.8825 12.7425 -5.5625 12.0625 C-5.5625 11.0725 -5.5625 10.0825 -5.5625 9.0625 C-4.9025 9.0625 -4.2425 9.0625 -3.5625 9.0625 C-3.2325 9.7225 -2.9025 10.3825 -2.5625 11.0625 C-0.9125 11.0625 0.7375 11.0625 2.4375 11.0625 C2.4375 10.4025 2.4375 9.7425 2.4375 9.0625 C0.1275 8.0725 -2.1825 7.0825 -4.5625 6.0625 C-4.605221 4.39638095 -4.60313832 2.72867115 -4.5625 1.0625 C-3.5625 0.0625 -3.5625 0.0625 0 0 Z " fill="#E1D3D7" transform="translate(580.5625,793.9375)"/>
<path d="M0 0 C0.66 0 1.32 0 2 0 C2 1.65 2 3.3 2 5 C4.31 5 6.62 5 9 5 C9 3.35 9 1.7 9 0 C9.66 0 10.32 0 11 0 C11 4.62 11 9.24 11 14 C10.34 13.67 9.68 13.34 9 13 C9 11.02 9 9.04 9 7 C6.69 7 4.38 7 2 7 C2 9.31 2 11.62 2 14 C1.34 13.67 0.68 13.34 0 13 C0 8.71 0 4.42 0 0 Z " fill="#D8BEC3" transform="translate(430,794)"/>
<path d="M0 0 C4.98777148 2.49388574 5.51258849 4.20284924 8 9 C8.33 6.03 8.66 3.06 9 0 C9.66 0 10.32 0 11 0 C11 4.29 11 8.58 11 13 C10.01 13.33 9.02 13.66 8 14 C6.02 10.7 4.04 7.4 2 4 C1.67 6.97 1.34 9.94 1 13 C0.67 13 0.34 13 0 13 C0 8.71 0 4.42 0 0 Z " fill="#E8E5E7" transform="translate(472,794)"/>
<path d="M0 0 C0.66 0 1.32 0 2 0 C2 1.65 2 3.3 2 5 C4.31 5 6.62 5 9 5 C9 3.35 9 1.7 9 0 C9.66 0 10.32 0 11 0 C11 4.29 11 8.58 11 13 C10.34 13 9.68 13 9 13 C9 11.02 9 9.04 9 7 C6.69 7 4.38 7 2 7 C2 8.98 2 10.96 2 13 C1.34 13 0.68 13 0 13 C0 8.71 0 4.42 0 0 Z " fill="#E2D6D9" transform="translate(692,794)"/>
<path d="M0 0 C3 0 3 0 4.6875 1.5 C5.120625 1.995 5.55375 2.49 6 3 C6.66 2.01 7.32 1.02 8 0 C8.66 0 9.32 0 10 0 C9.48802024 2.04791903 8.99221004 4.02077322 8.25 6 C7.75874057 8.14604615 7.75874057 8.14604615 9.4375 10.125 C10.2109375 11.053125 10.2109375 11.053125 11 12 C11 12.66 11 13.32 11 14 C8.00667261 13.0022242 7.05233685 12.2477975 5 10 C4.01 11.485 4.01 11.485 3 13 C2.01 12.67 1.02 12.34 0 12 C0.556875 11.13375 1.11375 10.2675 1.6875 9.375 C3.4375 6 3.4375 6 1.6875 2.625 C1.130625 1.75875 0.57375 0.8925 0 0 Z " fill="#DDCACE" transform="translate(504,794)"/>
<path d="M0 0 C0.33 1.32 0.66 2.64 1 4 C0.34 4 -0.32 4 -1 4 C-1.33 3.34 -1.66 2.68 -2 2 C-3.65 2.33 -5.3 2.66 -7 3 C-7.59732819 5.76264289 -8 8.16032769 -8 11 C-6.02 11 -4.04 11 -2 11 C-1.67 10.34 -1.34 9.68 -1 9 C-0.34 9 0.32 9 1 9 C0.67 10.32 0.34 11.64 0 13 C-6.38879457 14.32597623 -6.38879457 14.32597623 -8.875 13 C-10.57424291 9.97912372 -10.87912586 7.44491285 -11 4 C-8.33721803 -1.05928575 -5.2316492 -1.27256332 0 0 Z " fill="#DFCED1" transform="translate(719,794)"/>
<path d="M0 0 C0.66 0 1.32 0 2 0 C2.99 2.97 3.98 5.94 5 9 C6.32 6.03 7.64 3.06 9 0 C9.66 0 10.32 0 11 0 C10.36843005 5.05255964 8.86540627 9.29593201 7 14 C6.01 14 5.02 14 4 14 C3.32739649 12.23141309 2.66211605 10.46003984 2 8.6875 C1.62875 7.70136719 1.2575 6.71523438 0.875 5.69921875 C0 3 0 3 0 0 Z " fill="#DDCBCE" transform="translate(879,794)"/>
<path d="M0 0 C3.63 0 7.26 0 11 0 C11 0.66 11 1.32 11 2 C9.68 2 8.36 2 7 2 C7 5.96 7 9.92 7 14 C6.01 13.67 5.02 13.34 4 13 C4 9.37 4 5.74 4 2 C2.68 2 1.36 2 0 2 C0 1.34 0 0.68 0 0 Z " fill="#D3B1B7" transform="translate(855,794)"/>
<path d="M0 0 C3.63 0 7.26 0 11 0 C11 0.66 11 1.32 11 2 C9.68 2 8.36 2 7 2 C7 5.96 7 9.92 7 14 C6.01 13.67 5.02 13.34 4 13 C4 9.37 4 5.74 4 2 C2.68 2 1.36 2 0 2 C0 1.34 0 0.68 0 0 Z " fill="#D3B1B7" transform="translate(676,794)"/>
<path d="M0 0 C3.3 0 6.6 0 10 0 C9.67 0.66 9.34 1.32 9 2 C6.69 2 4.38 2 2 2 C2 3.32 2 4.64 2 6 C4.31 6 6.62 6 9 6 C9 6.33 9 6.66 9 7 C6.69 7 4.38 7 2 7 C2 8.65 2 10.3 2 12 C4.64 12 7.28 12 10 12 C10 12.33 10 12.66 10 13 C6.7 13 3.4 13 0 13 C0 8.71 0 4.42 0 0 Z " fill="#EEF2F3" transform="translate(759,794)"/>
<path d="M0 0 C3.3 0 6.6 0 10 0 C9.67 0.66 9.34 1.32 9 2 C6.69 2 4.38 2 2 2 C2 3.32 2 4.64 2 6 C4.31 6 6.62 6 9 6 C9 6.33 9 6.66 9 7 C6.69 7 4.38 7 2 7 C2 8.65 2 10.3 2 12 C4.64 12 7.28 12 10 12 C10 12.33 10 12.66 10 13 C6.7 13 3.4 13 0 13 C0 8.71 0 4.42 0 0 Z " fill="#EEF2F3" transform="translate(489,794)"/>
<path d="M0 0 C0.99 0 1.98 0 3 0 C3.67260351 1.76858691 4.33788395 3.53996016 5 5.3125 C5.37125 6.29863281 5.7425 7.28476562 6.125 8.30078125 C7 11 7 11 7 14 C6.34 14 5.68 14 5 14 C4.67 13.01 4.34 12.02 4 11 C0.28400809 10.79913557 -0.77208445 10.8480563 -4 13 C-3.625 10.0625 -3.625 10.0625 -3 7 C-2.34 6.67 -1.68 6.34 -1 6 C-1 6.66 -1 7.32 -1 8 C0.32 8 1.64 8 3 8 C2.67 6.02 2.34 4.04 2 2 C1.34 2 0.68 2 0 2 C0 1.34 0 0.68 0 0 Z " fill="#E0D2D5" transform="translate(651,794)"/>
<path d="M0 0 C3.3 0 6.6 0 10 0 C9.67 0.66 9.34 1.32 9 2 C6.69 2 4.38 2 2 2 C2 3.32 2 4.64 2 6 C4.31 6 6.62 6 9 6 C9 6.33 9 6.66 9 7 C6.36 7 3.72 7 1 7 C1 8.65 1 10.3 1 12 C3.97 12 6.94 12 10 12 C10 12.33 10 12.66 10 13 C6.7 13 3.4 13 0 13 C0 8.71 0 4.42 0 0 Z " fill="#E6DFE1" transform="translate(632,794)"/>
<path d="M0 0 C3.3 0 6.6 0 10 0 C9.67 0.66 9.34 1.32 9 2 C6.69 2 4.38 2 2 2 C2 3.32 2 4.64 2 6 C4.31 6 6.62 6 9 6 C9 6.33 9 6.66 9 7 C6.36 7 3.72 7 1 7 C1 8.65 1 10.3 1 12 C3.97 12 6.94 12 10 12 C10 12.33 10 12.66 10 13 C6.7 13 3.4 13 0 13 C0 8.71 0 4.42 0 0 Z " fill="#E5DEE0" transform="translate(560,794)"/>
<path d="M0 0 C3.3 0 6.6 0 10 0 C10 0.33 10 0.66 10 1 C7.69 1.33 5.38 1.66 3 2 C2.67 3.32 2.34 4.64 2 6 C4.64 6 7.28 6 10 6 C10 6.33 10 6.66 10 7 C7.36 7 4.72 7 2 7 C2 8.65 2 10.3 2 12 C4.64 12 7.28 12 10 12 C10 12.33 10 12.66 10 13 C6.7 13 3.4 13 0 13 C0 8.71 0 4.42 0 0 Z " fill="#E3D9DC" transform="translate(895,794)"/>
<path d="M0 0 C3.3 0 6.6 0 10 0 C10 0.33 10 0.66 10 1 C7.69 1.33 5.38 1.66 3 2 C2.67 3.32 2.34 4.64 2 6 C4.64 6 7.28 6 10 6 C10 6.33 10 6.66 10 7 C7.36 7 4.72 7 2 7 C2 8.65 2 10.3 2 12 C4.64 12 7.28 12 10 12 C10 12.33 10 12.66 10 13 C6.7 13 3.4 13 0 13 C0 8.71 0 4.42 0 0 Z " fill="#E3D9DC" transform="translate(447,794)"/>
<path d="M0 0 C2.31 0 4.62 0 7 0 C7 0.33 7 0.66 7 1 C5.35 1 3.7 1 2 1 C2 2.65 2 4.3 2 6 C3.98 5.67 5.96 5.34 8 5 C8 5.66 8 6.32 8 7 C5.69 7 3.38 7 1 7 C1 8.65 1 10.3 1 12 C5.96911366 10.87302957 5.96911366 10.87302957 10 8 C9.67 9.65 9.34 11.3 9 13 C6.03 13 3.06 13 0 13 C0 8.71 0 4.42 0 0 Z " fill="#EAEAEC" transform="translate(544,794)"/>
<path d="M0 0 C0.66 0 1.32 0 2 0 C2 1.65 2 3.3 2 5 C4.31 5 6.62 5 9 5 C9 3.35 9 1.7 9 0 C9.33 0 9.66 0 10 0 C10 4.29 10 8.58 10 13 C9.67 13 9.34 13 9 13 C9 11.02 9 9.04 9 7 C6.36 7 3.72 7 1 7 C1 8.98 1 10.96 1 13 C0.67 13 0.34 13 0 13 C0 8.71 0 4.42 0 0 Z " fill="#E4DBDE" transform="translate(615,794)"/>
<path d="M0 0 C3.96 0 7.92 0 12 0 C12 0.66 12 1.32 12 2 C10.35 2 8.7 2 7 2 C7 5.63 7 9.26 7 13 C6.34 13 5.68 13 5 13 C5 9.37 5 5.74 5 2 C3.35 2 1.7 2 0 2 C0 1.34 0 0.68 0 0 Z " fill="#DECCCF" transform="translate(414,794)"/>
<path d="M0 0 C3.63 0 7.26 0 11 0 C10.67 0.66 10.34 1.32 10 2 C8.68 2 7.36 2 6 2 C6 5.96 6 9.92 6 14 C5.34 14 4.68 14 4 14 C4 10.04 4 6.08 4 2 C2.68 2 1.36 2 0 2 C0 1.34 0 0.68 0 0 Z " fill="#DFCFD2" transform="translate(816,794)"/>
<path d="M0 0 C0.66 0 1.32 0 2 0 C2 3.96 2 7.92 2 12 C4.31 12 6.62 12 9 12 C9 12.66 9 13.32 9 14 C6.03 14 3.06 14 0 14 C0 9.38 0 4.76 0 0 Z " fill="#DECDD1" transform="translate(663,794)"/>
<path d="M0 0 C3.63 0 7.26 0 11 0 C11 0.66 11 1.32 11 2 C9.68 2 8.36 2 7 2 C7 5.63 7 9.26 7 13 C6.34 13 5.68 13 5 13 C5 9.04 5 5.08 5 1 C3.35 1 1.7 1 0 1 C0 0.67 0 0.34 0 0 Z " fill="#E4DBDE" transform="translate(590,794)"/>
<path d="M0 0 C3.63 0 7.26 0 11 0 C11 0.66 11 1.32 11 2 C9.68 2 8.36 2 7 2 C7 5.63 7 9.26 7 13 C6.34 13 5.68 13 5 13 C5 9.04 5 5.08 5 1 C3.35 1 1.7 1 0 1 C0 0.67 0 0.34 0 0 Z " fill="#E4DBDE" transform="translate(519,794)"/>
<path d="M0 0 C0.99 0 1.98 0 3 0 C3.67260351 1.76858691 4.33788395 3.53996016 5 5.3125 C5.37125 6.29863281 5.7425 7.28476562 6.125 8.30078125 C7 11 7 11 7 14 C6.34 14 5.68 14 5 14 C4.67 12.35 4.34 10.7 4 9 C2.02 9 0.04 9 -2 9 C-2 8.67 -2 8.34 -2 8 C-0.35 8 1.3 8 3 8 C2.67 6.35 2.34 4.7 2 3 C1.34 3 0.68 3 0 3 C0 2.01 0 1.02 0 0 Z " fill="#E6E0E2" transform="translate(844,794)"/>
<path d="M0 0 C2.31 0.33 4.62 0.66 7 1 C6.67 2.32 6.34 3.64 6 5 C4.02 5 2.04 5 0 5 C0 3.35 0 1.7 0 0 Z " fill="#961D2E" transform="translate(545,801)"/>
<path d="M0 0 C0.66 0 1.32 0 2 0 C2 4.29 2 8.58 2 13 C1.01 13.33 0.02 13.66 -1 14 C-0.67 9.38 -0.34 4.76 0 0 Z " fill="#D8BDC2" transform="translate(481,794)"/>
<path d="M0 0 C2.31 0 4.62 0 7 0 C6.67 1.32 6.34 2.64 6 4 C4.02 4 2.04 4 0 4 C0 2.68 0 1.36 0 0 Z " fill="#8E0B1D" transform="translate(744,796)"/>
<path d="M0 0 C0.66 0 1.32 0 2 0 C2.33 0.66 2.66 1.32 3 2 C5.64 1.67 8.28 1.34 11 1 C10 4 10 4 8 5 C5 5.1875 5 5.1875 2 5 C1.34 4.34 0.68 3.68 0 3 C0 2.01 0 1.02 0 0 Z " fill="#D9BFC4" transform="translate(575,803)"/>
<path d="M0 0 C0.99 0 1.98 0 3 0 C3.33 1.98 3.66 3.96 4 6 C2.68 6 1.36 6 0 6 C-1.125 2.25 -1.125 2.25 0 0 Z " fill="#B2626E" transform="translate(650,796)"/>
<path d="M0 0 C3.3 0 6.6 0 10 0 C9.67 0.66 9.34 1.32 9 2 C6.69 2 4.38 2 2 2 C1.67 3.32 1.34 4.64 1 6 C0.67 4.02 0.34 2.04 0 0 Z " fill="#DCC7CC" transform="translate(759,794)"/>
<path d="M0 0 C3.3 0 6.6 0 10 0 C9.67 0.66 9.34 1.32 9 2 C6.69 2 4.38 2 2 2 C1.67 3.32 1.34 4.64 1 6 C0.67 4.02 0.34 2.04 0 0 Z " fill="#DCC7CC" transform="translate(489,794)"/>
<path d="M0 0 C1.65 0 3.3 0 5 0 C4.67 1.32 4.34 2.64 4 4 C2.68 4 1.36 4 0 4 C0 2.68 0 1.36 0 0 Z " fill="#8F0D1F" transform="translate(546,796)"/>
<path d="M0 0 C2.64 0 5.28 0 8 0 C8.625 2.375 8.625 2.375 9 5 C8.34 5.66 7.68 6.32 7 7 C6 4 6 4 7 1 C4.69 1 2.38 1 0 1 C0 0.67 0 0.34 0 0 Z " fill="#D3B3B8" transform="translate(744,795)"/>
</svg>
